# Blender 3.4.0
# www.blender.org
mtllib arm_claw.mtl
o claw
v 0.375000 1.062500 0.187500
v 0.312500 1.062500 0.187500
v 0.312500 1.312500 0.187500
v 0.375000 1.312500 0.187500
v 0.375000 1.062500 0.812500
v 0.375000 1.312500 0.812500
v 0.312500 1.062500 0.812500
v 0.312500 1.312500 0.812500
vn -0.0000 -0.0000 -1.0000
vn 1.0000 -0.0000 -0.0000
vn -0.0000 -0.0000 1.0000
vn -1.0000 -0.0000 -0.0000
vn -0.0000 1.0000 -0.0000
vn -0.0000 -1.0000 -0.0000
vt 0.062500 0.500000
vt 0.312500 0.875000
vt 0.375000 0.562500
vt 0.093750 0.500000
vt 0.000000 0.750000
vt 0.343750 0.562500
vt 0.093750 0.625000
vt 0.000000 0.875000
vt 0.312500 0.875000
vt 0.062500 0.625000
vt 0.312500 1.000000
vt 0.343750 0.875000
vt 0.000000 0.875000
vt 0.125000 0.500000
vt 0.375000 0.875000
vt 0.000000 1.000000
vt 0.125000 0.625000
vt 0.343750 0.562500
vt 0.093750 0.500000
vt 0.312500 0.750000
vt 0.343750 0.875000
vt 0.093750 0.625000
vt 0.312500 0.875000
vt 0.312500 0.562500
s 0
usemtl m_0.001
f 1/1/1 2/4/1 3/7/1 4/10/1
f 5/13/2 1/2/2 4/11/2 6/16/2
f 7/19/3 5/14/3 6/17/3 8/22/3
f 2/5/4 7/20/4 8/23/4 3/8/4
f 8/24/5 6/18/5 4/12/5 3/9/5
f 2/6/6 1/3/6 5/15/6 7/21/6
o claw.001
v 0.687500 1.062500 0.187500
v 0.625000 1.062500 0.187500
v 0.625000 1.312500 0.187500
v 0.687500 1.312500 0.187500
v 0.687500 1.062500 0.812500
v 0.687500 1.312500 0.812500
v 0.625000 1.062500 0.812500
v 0.625000 1.312500 0.812500
vn -0.0000 -0.0000 -1.0000
vn 1.0000 -0.0000 -0.0000
vn -0.0000 -0.0000 1.0000
vn -1.0000 -0.0000 -0.0000
vn -0.0000 1.0000 -0.0000
vn -0.0000 -1.0000 -0.0000
vt 0.125000 0.500000
vt 0.312500 0.625000
vt 0.062500 0.312500
vt 0.156250 0.500000
vt 0.312500 0.875000
vt 0.031250 0.312500
vt 0.156250 0.625000
vt 0.312500 1.000000
vt 0.000000 0.625000
vt 0.125000 0.625000
vt 0.312500 0.750000
vt 0.031250 0.625000
vt 0.000000 0.625000
vt 0.406250 0.750000
vt 0.062500 0.625000
vt 0.000000 0.750000
vt 0.406250 0.875000
vt 0.031250 0.312500
vt 0.375000 0.750000
vt 0.625000 0.875000
vt 0.031250 0.625000
vt 0.375000 0.875000
vt 0.625000 1.000000
vt 0.000000 0.312500
s 0
usemtl m_0.001
f 9/25/7 10/28/7 11/31/7 12/34/7
f 13/37/8 9/26/8 12/35/8 14/40/8
f 15/43/9 13/38/9 14/41/9 16/46/9
f 10/29/10 15/44/10 16/47/10 11/32/10
f 16/48/11 14/42/11 12/36/11 11/33/11
f 10/30/12 9/27/12 13/39/12 15/45/12
