# Made in Blockbench 4.5.2
mtllib arm_hand.mtl

o hand
v 0.6875 1.501216851053075 0.06421683469734285
v 0.3125 1.501216851053075 0.06421683469734285
v 0.3125 1.501217322885609 0.25171649417910674
v 0.6875 1.501217322885609 0.25171649417910674
v 0.6875 1.126216958513111 0.06421695921036635
v 0.6875 1.126217430345645 0.2517166186921302
v 0.3125 1.126216958513111 0.06421695921036635
v 0.3125 1.1262166111936007 0.2517171922685666
v 0.75 1.5012169340617576 0.31421676305731905
v 0.25 1.5012169340617576 0.31421676305731905
v 0.25 1.5012170585747813 0.689216655597283
v 0.75 1.5012170585747813 0.689216655597283
v 0.75 1.1262170415217936 0.3142168875703425
v 0.75 1.126217166034817 0.6892167801103065
v 0.25 1.1262170415217936 0.3142168875703425
v 0.25 1.126217166034817 0.6892167801103065
v 0.6875 1.5637172029399697 0.3142171518811704
v 0.3125 1.5637172029399697 0.3142171518811704
v 0.3125 1.5637173274529932 0.6892170444211345
v 0.6875 1.5637173274529932 0.6892170444211345
v 0.6875 1.0637167726435814 0.31421649874649116
v 0.6875 1.063716897156605 0.6892163912864547
v 0.3125 1.0637167726435814 0.31421649874649116
v 0.3125 1.063716897156605 0.6892163912864547
v 0.6875 1.5012165037335647 0.25171706775554314
v 0.3125 1.5012165037335647 0.25171706775554314
v 0.3125 1.5012166697509295 0.751716924475495
v 0.6875 1.5012166697509295 0.751716924475495
v 0.6875 1.1262166111936007 0.2517171922685666
v 0.6875 1.1262167772109657 0.7517170489885188
v 0.3125 1.1262166111936007 0.2517171922685666
v 0.3125 1.1262167772109657 0.7517170489885188
vt 0 0.03125
vt 0.1875 0.03125
vt 0.1875 0.125
vt 0 0.125
vt 0.625 0.09375
vt 0.8125 0.09375
vt 0.8125 0.1875
vt 0.625 0.1875
vt 0.375 0.03125
vt 0.5625 0.03125
vt 0.5625 0.125
vt 0.375 0.125
vt 0.8125 0.25
vt 0.8125 0.0625
vt 0.90625 0.0625
vt 0.90625 0.25
vt 0.8125 0.25
vt 1 0.25
vt 1 0.4375
vt 0.8125 0.4375
vt 0.9375 1
vt 0.75 1
vt 0.75 0.8125
vt 0.9375 0.8125
vt 0.1875 0.1875
vt 0.4375 0.1875
vt 0.4375 0.375
vt 0.1875 0.375
vt 0 0.3125
vt 0 0.125
vt 0.1875 0.125
vt 0.1875 0.3125
vt 0.5625 0.625
vt 0.8125 0.625
vt 0.8125 0.8125
vt 0.5625 0.8125
vt 0 0.3125
vt 0 0.125
vt 0.1875 0.125
vt 0.1875 0.3125
vt 0.5 0.8125
vt 0.75 0.8125
vt 0.75 1
vt 0.5 1
vt 0.4375 0.5625
vt 0.1875 0.5625
vt 0.1875 0.375
vt 0.4375 0.375
vt 0.1875 0
vt 0.375 0
vt 0.375 0.1875
vt 0.1875 0.1875
vt 0 0.8125
vt 0.25 0.8125
vt 0.25 1
vt 0 1
vt 0 0.3125
vt 0 0.125
vt 0.1875 0.125
vt 0.1875 0.3125
vt 0 0.8125
vt 0 0.5625
vt 0.1875 0.5625
vt 0.1875 0.8125
vt 0.375 0.5625
vt 0.5625 0.5625
vt 0.5625 0.8125
vt 0.375 0.8125
vt 0.1875 0.5625
vt 0 0.5625
vt 0 0.3125
vt 0.1875 0.3125
vt 0.4375 0.3125
vt 0.625 0.3125
vt 0.625 0.5625
vt 0.4375 0.5625
vt 0.1875 0.5625
vt 0.375 0.5625
vt 0.375 0.8125
vt 0.1875 0.8125
vt 0.625 0.375
vt 0.8125 0.375
vt 0.8125 0.625
vt 0.625 0.625
vt 0.25 1
vt 0.25 0.8125
vt 0.5 0.8125
vt 0.5 1
vt 0.8125 0.4375
vt 1 0.4375
vt 1 0.625
vt 0.8125 0.625
vt 1 0.8125
vt 0.8125 0.8125
vt 0.8125 0.625
vt 1 0.625
vn 0 0.9999999999968339 -0.000002516444750688685
vn 1 0 0
vn 0 -0.9999999999968339 0.000002516444751188285
vn -1 0 0
vn 0.0000015295364383462192 3.320348243018856e-7 0.9999999999987752
vn 0 -3.320348244684191e-7 -0.999999999999945
vn 0 0.9999999999999449 -3.3203482502353054e-7
vn 1 0 0
vn 0 -0.9999999999999449 3.320348247459748e-7
vn -1 0 0
vn 0 3.320348245239302e-7 0.9999999999999449
vn 0 -3.320348243018856e-7 -0.9999999999999449
vn 0 0.9999999999999449 -3.320348247459748e-7
vn 1 0 0
vn 0 -0.9999999999999449 3.320348241353521e-7
vn -1 0 0
vn 0 -0.0000013062682350795107 0.9999999999991469
vn 0 0.0000013062682343023546 -0.9999999999991469
vn 0 0.9999999999999449 -3.3203482474597474e-7
vn 1 0 0
vn 0 -0.999999999999945 3.3203482519006405e-7
vn -1 0 0
vn 0 3.3203482541210866e-7 0.999999999999945
vn 0 -3.3203482430188563e-7 -0.9999999999999449
usemtl m_0.002
f 1/1/1 2/2/1 3/3/1 4/4/1
f 5/5/2 1/6/2 4/7/2 6/8/2
f 7/9/3 5/10/3 6/11/3 8/12/3
f 2/13/4 7/14/4 8/15/4 3/16/4
f 8/17/5 6/18/5 4/19/5 3/20/5
f 2/21/6 1/22/6 5/23/6 7/24/6
f 9/25/7 10/26/7 11/27/7 12/28/7
f 13/29/8 9/30/8 12/31/8 14/32/8
f 15/33/9 13/34/9 14/35/9 16/36/9
f 10/37/10 15/38/10 16/39/10 11/40/10
f 16/41/11 14/42/11 12/43/11 11/44/11
f 10/45/12 9/46/12 13/47/12 15/48/12
f 17/49/13 18/50/13 19/51/13 20/52/13
f 21/53/14 17/54/14 20/55/14 22/56/14
f 23/57/15 21/58/15 22/59/15 24/60/15
f 18/61/16 23/62/16 24/63/16 19/64/16
f 24/65/17 22/66/17 20/67/17 19/68/17
f 18/69/18 17/70/18 21/71/18 23/72/18
f 25/73/19 26/74/19 27/75/19 28/76/19
f 29/77/20 25/78/20 28/79/20 30/80/20
f 31/81/21 29/82/21 30/83/21 32/84/21
f 26/85/22 31/86/22 32/87/22 27/88/22
f 32/89/23 30/90/23 28/91/23 27/92/23
f 26/93/24 25/94/24 29/95/24 31/96/24